<svg xmlns="http://www.w3.org/2000/svg" width="1892" height="1874" viewBox="0 0 1892 1874" version="1.1">
	<path d="M 720.350 317.329 C 616.819 411.489, 609.674 418.192, 587.238 442.218 C 542.792 489.811, 513.559 529.649, 503.547 556.273 C 500.155 565.292, 500.204 568.537, 503.758 570.375 C 506.721 571.907, 539.026 579.840, 553 582.467 C 600.893 591.471, 640.239 587.097, 678.500 568.516 C 712.610 551.951, 742.390 525.682, 764.675 492.500 C 789.294 455.844, 805.241 404.834, 809.946 347.696 C 811.962 323.208, 811.056 284.164, 807.970 262.500 C 807.198 257.087, 807.315 253.573, 808.485 247 C 810.232 237.181, 810.248 236.974, 809.250 237.079 C 808.837 237.122, 768.832 273.234, 720.350 317.329 M 327.710 551.250 C 326.790 551.938, 326.366 553.003, 326.769 553.617 C 328.452 556.189, 341.711 563.529, 379.500 582.808 C 401.500 594.033, 435.925 612.331, 456 623.471 C 497.362 646.424, 517.355 657, 519.383 657 C 520.390 657, 519.732 654.582, 517.004 648.250 C 511.981 636.590, 505.189 615.263, 499.979 594.786 L 495.726 578.072 485.113 573.623 C 456.115 561.467, 433.053 556.149, 389 551.459 C 371.629 549.609, 330.094 549.468, 327.710 551.250 M 651.742 599.301 C 632.281 606.086, 614.448 625.889, 610.363 645.248 C 607.754 657.617, 611.170 673.764, 618.941 685.787 C 625.166 695.418, 632.791 700.174, 645.062 702.078 C 664.416 705.080, 682.776 694.385, 692.673 674.341 C 696.400 666.791, 696.498 666.314, 696.429 656.045 C 696.368 646.947, 695.926 644.235, 693.207 636.277 C 689.261 624.726, 685.493 617.234, 679.632 609.280 C 671.093 597.692, 663.820 595.090, 651.742 599.301 M 667 621.619 C 661.538 625.040, 658.114 633.461, 659.398 640.310 C 660.318 645.214, 665.234 650.690, 669.995 652.117 C 673.229 653.086, 674.385 652.974, 677.644 651.379 C 679.756 650.346, 682.044 648.375, 682.727 647 C 685.540 641.343, 683.078 627.058, 678.398 621.888 C 676.291 619.559, 670.506 619.423, 667 621.619 M 746.159 647.894 C 738.919 648.420, 737.557 648.822, 735.847 650.937 C 733.555 653.772, 734.033 657.305, 737.163 660.659 C 740.128 663.836, 748.578 665.038, 772.500 665.684 C 795.854 666.315, 816.980 664.898, 820.717 662.450 C 823.939 660.338, 823.874 654.128, 820.588 650.306 L 818.176 647.500 786.338 647.394 C 768.827 647.335, 750.746 647.560, 746.159 647.894 M 494.500 673.079 C 471.576 678.736, 436.531 685.703, 422.187 687.456 C 415.415 688.284, 399.440 689.434, 386.687 690.012 C 329.287 692.612, 324.494 693.135, 325.186 696.726 C 325.831 700.078, 343.072 707.942, 362 713.518 C 378.587 718.405, 420.030 727.988, 430.147 729.277 C 441.617 730.738, 444.212 729.870, 458.098 719.930 C 480.647 703.788, 518 672.592, 518 669.901 C 518 668.140, 510.286 669.183, 494.500 673.079 M 795.957 695.250 C 794.790 696.487, 789.519 703.800, 784.244 711.500 C 770.074 732.185, 758.373 747.237, 747.558 758.690 C 720.691 787.145, 692.420 803.479, 661.156 808.612 C 648.988 810.610, 626.241 810.020, 618 807.494 C 601.141 802.325, 589.385 791.904, 581.062 774.750 C 575.101 762.466, 572.850 754.602, 569.483 734.304 C 566.257 714.852, 566.037 714.285, 561.394 713.414 C 556.614 712.517, 552.938 713.857, 551.077 717.172 C 549.729 719.573, 549.841 721.076, 552.283 733.411 C 559.227 768.490, 571.205 793.578, 589.002 810.320 C 601.719 822.283, 614.083 827.373, 633.401 828.596 C 685.329 831.884, 740.116 798.474, 779.502 739.500 C 788.203 726.471, 796.296 711.019, 798.995 702.281 C 801.670 693.620, 800.357 690.582, 795.957 695.250 M 1035.523 799.011 C 998.456 806.902, 931.002 832.876, 877 860.052 C 791.530 903.065, 735.661 948.836, 712.633 994.712 C 702.716 1014.468, 699.925 1041.876, 704.098 1078.500 C 709.335 1124.451, 723.623 1171.438, 745.456 1214.500 C 807.571 1337.017, 918.987 1409.371, 1076.500 1429.483 C 1126.960 1435.926, 1190.599 1436.645, 1249.500 1431.436 C 1300.617 1426.917, 1361.353 1416.833, 1416.820 1403.658 L 1435.141 1399.306 1460.820 1417.303 C 1621.397 1529.838, 1726.603 1599.579, 1766 1619.604 C 1777.075 1625.234, 1777.832 1625.464, 1786.478 1625.833 C 1797.321 1626.296, 1804.155 1624.930, 1813.702 1620.394 C 1827.136 1614.010, 1839.061 1602.575, 1845.206 1590.185 C 1847.687 1585.183, 1848.434 1582.218, 1848.799 1575.919 C 1849.628 1561.587, 1846.333 1556.865, 1824.856 1541.614 C 1792.604 1518.710, 1705.621 1464.443, 1586.711 1393.040 C 1562.626 1378.578, 1543.129 1366.537, 1543.384 1366.283 C 1543.639 1366.028, 1550.408 1363.184, 1558.426 1359.963 C 1578.672 1351.830, 1586.521 1347.570, 1588.046 1343.889 C 1593.942 1329.654, 1557.049 1271.071, 1496.484 1198.500 C 1397.283 1079.634, 1254.972 943.884, 1138.005 856.549 C 1102.140 829.771, 1055.003 799.242, 1047 797.610 C 1045.625 797.329, 1040.460 797.960, 1035.523 799.011" stroke="none" fill="black" fill-rule="evenodd"/>
</svg>