<svg xmlns="http://www.w3.org/2000/svg" width="1844" height="1337" viewBox="0 0 1844 1337" version="1.1">
	<path d="M 1150.698 152.109 C 1146.453 154.579, 1116.155 166.179, 1100.500 171.329 C 1091.150 174.404, 1066.175 181.908, 1045 188.004 C 1023.825 194.100, 998.175 201.866, 988 205.263 L 969.500 211.438 901 211.469 C 818.024 211.507, 787.485 212.906, 756.708 218.079 C 712.347 225.537, 672.195 241.077, 636 264.798 C 626.005 271.349, 609.481 283.328, 608 285.097 C 607.725 285.426, 602.775 290.087, 597 295.455 C 557.115 332.527, 528.097 379.605, 513.035 431.675 C 510.549 440.272, 512.345 439.648, 487.500 440.549 C 469.990 441.184, 468.928 441.105, 448.500 437.661 C 386.439 427.196, 347.280 422.849, 298.822 421.043 C 247.695 419.139, 195.535 423.084, 153 432.075 C 139.225 434.986, 116.727 440.873, 115.788 441.812 C 114.896 442.704, 146.346 448.694, 172 452.518 C 189.898 455.185, 213.527 459.532, 231.894 463.537 C 238.277 464.928, 245.750 466.550, 248.500 467.141 C 257.165 469.001, 303.997 480.706, 316 484.011 C 322.325 485.752, 330.650 488.044, 334.500 489.103 C 338.350 490.162, 342.730 491.301, 344.234 491.636 C 345.737 491.970, 346.795 492.526, 346.585 492.872 C 346.374 493.217, 347.801 493.585, 349.755 493.690 C 351.709 493.794, 353.681 494.469, 354.138 495.190 C 354.595 495.910, 354.976 496.187, 354.985 495.804 C 355 495.116, 357.416 495.732, 374 500.654 C 399.322 508.169, 474.207 531.951, 487 536.541 C 490.575 537.823, 501.780 542.276, 511.899 546.436 C 522.019 550.596, 530.483 554, 530.708 554 C 530.934 554, 530.843 554.445, 530.507 554.989 C 530.171 555.532, 530.514 555.740, 531.269 555.450 C 532.023 555.161, 535.397 556.291, 538.764 557.962 C 542.132 559.633, 545.390 561, 546.003 561 C 546.616 561, 546.797 561.520, 546.405 562.155 C 545.992 562.822, 546.127 563.039, 546.724 562.670 C 547.293 562.319, 551.886 564.274, 556.931 567.016 C 561.976 569.757, 566.493 572, 566.969 572 C 567.444 572, 567.983 572.337, 568.167 572.750 C 568.350 573.163, 572.325 575.491, 577 577.925 C 581.675 580.358, 585.775 582.759, 586.112 583.260 C 586.448 583.761, 587.123 584.174, 587.612 584.177 C 589.782 584.192, 598.874 589.395, 598.314 590.301 C 597.971 590.856, 598.170 591.013, 598.756 590.651 C 599.655 590.095, 623 601.512, 623 602.507 C 623 602.694, 618.838 601.030, 613.750 598.810 C 594.974 590.617, 552.810 576.300, 508.500 563.072 C 492.623 558.332, 473.778 553.610, 452.500 549.039 C 447.550 547.976, 439.225 546.172, 434 545.031 C 401.191 537.863, 327.612 526.641, 293 523.526 C 283.375 522.659, 266.500 521.056, 255.500 519.963 C 244.500 518.870, 233.250 517.759, 230.500 517.494 C 227.750 517.230, 221 516.565, 215.500 516.017 C 210 515.469, 195.600 514.549, 183.500 513.974 C 162.111 512.956, 150.991 512.184, 124.889 509.902 C 117.952 509.296, 111.427 508.971, 110.389 509.180 C 109.251 509.410, 113.269 511.599, 120.500 514.689 C 127.100 517.509, 142.625 524.185, 155 529.524 C 189.075 544.224, 205.771 550.421, 229 556.989 C 233.125 558.155, 237.175 559.379, 238 559.708 C 238.825 560.037, 239.950 560.358, 240.500 560.420 C 243.826 560.799, 252 563.519, 252 564.248 C 252 564.727, 252.431 564.852, 252.957 564.526 C 253.484 564.201, 260.121 565.701, 267.707 567.859 C 275.293 570.017, 288.700 573.698, 297.500 576.039 C 306.300 578.380, 313.725 580.566, 314 580.897 C 314.275 581.229, 316.075 581.628, 318 581.784 C 319.925 581.941, 321.651 582.506, 321.835 583.040 C 322.020 583.575, 322.523 583.795, 322.954 583.528 C 323.385 583.262, 327.509 584.109, 332.119 585.410 C 336.729 586.711, 348.375 589.896, 358 592.487 C 367.625 595.079, 379.550 598.305, 384.500 599.656 C 397.339 603.161, 409.446 606.362, 425.376 610.464 C 433.007 612.429, 439.652 614.285, 440.142 614.588 C 440.632 614.891, 442.263 615.361, 443.766 615.633 C 448.033 616.404, 461.248 620.035, 462.415 620.757 C 462.992 621.113, 464.148 621.472, 464.982 621.553 C 466.770 621.728, 492.018 629.289, 500.103 632.072 C 503.184 633.132, 506.192 634, 506.788 634 C 507.383 634, 509.137 634.519, 510.685 635.154 C 512.233 635.788, 514.082 636.426, 514.793 636.571 C 515.504 636.717, 522.254 638.749, 529.793 641.088 L 543.500 645.341 550.796 656.420 C 587.130 711.596, 647.488 756.007, 715.311 777.471 C 742.982 786.228, 779.090 792.859, 800 793.023 C 805.325 793.065, 805.435 793.121, 803.461 794.783 C 799.706 797.943, 784.546 817.395, 778.352 827 C 763.188 850.514, 754.138 874.035, 748.343 905 C 745.783 918.676, 745.791 955.163, 748.356 970.500 C 755.665 1014.193, 777.739 1055.029, 810.928 1086.250 C 831.480 1105.584, 858.861 1121.737, 886.978 1131.114 C 897.448 1134.606, 899.980 1135.855, 902.430 1138.738 L 905.359 1142.186 900.685 1151.595 C 894.363 1164.322, 878.752 1185.583, 876.673 1184.298 C 876.129 1183.962, 876.007 1184.202, 876.398 1184.835 C 876.820 1185.518, 872.890 1190.283, 866.658 1196.644 L 856.211 1207.309 849.830 1206.713 C 831.082 1204.962, 793.402 1193.771, 771.103 1183.331 C 753.537 1175.106, 742.741 1172.483, 736.500 1174.922 L 734.500 1175.704 736.500 1176.279 C 737.600 1176.595, 740.402 1177.150, 742.727 1177.511 C 745.642 1177.964, 748.990 1179.740, 753.513 1183.231 L 760.072 1188.295 758.036 1190.462 C 754.745 1193.965, 755.420 1195.041, 760.473 1194.349 C 766.039 1193.586, 771.303 1195.429, 794.500 1206.264 C 813.541 1215.158, 820.308 1217.852, 831.672 1221.064 C 853.774 1227.311, 869.945 1229.318, 876.389 1226.616 C 880.806 1224.765, 881.156 1224.922, 887.067 1231.422 C 889.436 1234.028, 891.069 1235.075, 891.932 1234.542 C 893.936 1233.304, 892.691 1226.055, 889.647 1221.233 C 888.191 1218.927, 887 1216.431, 887 1215.687 C 887 1214.944, 893.667 1203.797, 901.815 1190.918 C 909.964 1178.038, 917.882 1165.362, 919.410 1162.750 C 920.971 1160.083, 922.655 1158.287, 923.250 1158.654 C 923.840 1159.019, 924.018 1158.838, 923.651 1158.245 C 922.408 1156.233, 924.198 1154.053, 927.621 1153.411 C 931.429 1152.697, 933.576 1150.248, 934.997 1145 L 935.944 1141.500 951.222 1141.263 C 959.625 1141.132, 972.800 1140.199, 980.500 1139.190 C 993.032 1137.547, 999.935 1137.602, 1001.692 1139.358 C 1003.453 1141.119, 1006.223 1160.284, 1006.699 1174 C 1007.231 1189.332, 1005.779 1216.851, 1004.039 1224.407 C 1002.893 1229.388, 999.902 1231.856, 988 1237.643 C 965.904 1248.386, 940.419 1256.930, 915.500 1261.948 C 898.282 1265.415, 890.556 1268.263, 886 1272.821 C 881.613 1277.208, 883.230 1277.931, 889.888 1274.557 C 895.039 1271.947, 899.066 1271.499, 907.277 1272.625 C 911.766 1273.240, 911.826 1273.297, 911.307 1276.497 C 910.546 1281.187, 912.490 1281.650, 916.027 1277.622 C 918.832 1274.427, 920.161 1273.893, 932.291 1271.087 C 939.556 1269.406, 951.575 1266.892, 959 1265.500 C 972.328 1263.003, 993.668 1257.197, 999.500 1254.482 C 1001.150 1253.714, 1006.856 1251.067, 1012.181 1248.599 C 1020.698 1244.652, 1031.606 1238, 1029.561 1238 C 1029.155 1238, 1029.987 1236.615, 1031.411 1234.923 C 1032.835 1233.231, 1034 1231.479, 1034 1231.030 C 1034 1229.350, 1036.986 1229.178, 1042.655 1230.532 C 1050.431 1232.390, 1050.171 1232.455, 1049.813 1228.750 C 1049.533 1225.843, 1048.762 1225.115, 1042.500 1221.845 C 1038.650 1219.834, 1035.014 1217.751, 1034.420 1217.214 C 1033.826 1216.678, 1032.572 1207.973, 1031.632 1197.870 C 1030.693 1187.766, 1028.994 1170.111, 1027.858 1158.637 L 1025.792 1137.773 1027.896 1134.927 C 1029.053 1133.362, 1030 1131.621, 1030 1131.060 C 1030 1130.498, 1031.237 1129.768, 1032.750 1129.438 C 1053.332 1124.942, 1100.789 1110.137, 1132.500 1098.318 C 1176.994 1081.734, 1234.564 1054.946, 1265.994 1036.201 C 1270.122 1033.739, 1274.063 1031.711, 1274.750 1031.695 C 1275.438 1031.680, 1275.793 1031.460, 1275.541 1031.208 C 1275.289 1030.955, 1279.676 1027.952, 1285.291 1024.535 C 1322.279 1002.022, 1355.521 974.463, 1374.152 950.868 C 1380.363 943.002, 1382.634 941.094, 1399.734 929.377 C 1410.055 922.304, 1424.650 912.464, 1432.168 907.509 C 1450.370 895.511, 1518.575 849.280, 1536.928 836.500 C 1597.039 794.641, 1617.698 779.733, 1616.257 779.252 C 1615.666 779.055, 1610.304 780.463, 1604.341 782.381 C 1531.323 805.861, 1464.933 822.259, 1399.588 832.954 C 1364.459 838.703, 1364.954 838.667, 1361.436 835.746 C 1350.818 826.930, 1329.334 814.285, 1311 806.061 C 1305.775 803.717, 1299.628 800.951, 1297.340 799.915 C 1278.097 791.203, 1229.845 775.744, 1193 766.487 C 1175.760 762.155, 1132.673 752.889, 1118.294 750.420 C 1112.680 749.456, 1108.315 748.299, 1108.593 747.850 C 1108.870 747.401, 1104.013 744.583, 1097.799 741.588 C 1085.987 735.896, 1078 731.118, 1078 729.745 C 1078 728.470, 1105.615 729.904, 1113.960 731.614 C 1118.107 732.463, 1123.412 733.997, 1125.750 735.023 C 1128.088 736.048, 1130 736.500, 1130 736.027 C 1130 735.154, 1117.990 725.349, 1103.599 714.472 L 1095.697 708.500 1105.099 708.184 C 1122.567 707.596, 1141.990 711.233, 1150.342 716.656 C 1152.455 718.027, 1154.411 718.922, 1154.689 718.644 C 1154.968 718.366, 1154.702 715.836, 1154.098 713.022 C 1152.947 707.656, 1149.389 701.718, 1141.017 691.193 C 1138.258 687.725, 1136 684.462, 1136 683.943 C 1136 682.195, 1139.982 679, 1142.162 679 C 1144.882 679, 1150.845 682.477, 1160.205 689.522 C 1173.614 699.613, 1183.603 702.429, 1178.532 694.689 C 1176.253 691.212, 1170.080 671.528, 1169.368 665.472 L 1168.729 660.041 1174.787 662.975 C 1188.016 669.383, 1198.905 673.482, 1206.438 674.890 C 1210.690 675.684, 1210.999 675.598, 1210.986 673.621 C 1210.978 672.401, 1207.579 667.676, 1202.986 662.500 C 1182.159 639.030, 1172 626.160, 1172 623.244 C 1172 621.837, 1174.028 622.119, 1182.500 624.702 C 1188.525 626.540, 1200.795 633.101, 1210.930 639.906 C 1215.017 642.650, 1218.714 644.677, 1219.145 644.410 C 1219.577 644.144, 1218.434 641.966, 1216.605 639.570 C 1214.777 637.175, 1210.684 630.104, 1207.510 623.858 C 1198.529 606.180, 1191.539 594.751, 1186.011 588.703 C 1181.265 583.509, 1181.077 583.110, 1183.086 582.473 C 1186.467 581.400, 1197.281 582.920, 1212.043 586.545 C 1227.710 590.392, 1236 591.693, 1236 590.304 C 1236 587.420, 1218.835 570.364, 1204.703 559.208 C 1200.767 556.100, 1199.323 554.409, 1200.203 553.938 C 1200.917 553.556, 1206.225 552.929, 1212 552.544 C 1225.588 551.639, 1245.100 549.249, 1245.886 548.393 C 1246.224 548.026, 1246.001 547.547, 1245.392 547.327 C 1240.899 545.709, 1221.555 531.414, 1212.500 523.022 C 1206.450 517.414, 1199.301 511.403, 1196.614 509.663 L 1191.728 506.500 1199.114 506.273 C 1203.176 506.149, 1213.925 505.300, 1223 504.387 C 1234.051 503.275, 1243.291 502.929, 1250.981 503.339 L 1262.462 503.951 1255.981 500.158 C 1252.416 498.072, 1245.338 494.033, 1240.250 491.182 C 1235.162 488.332, 1226.838 483.668, 1221.750 480.819 C 1216.662 477.969, 1210.767 474.644, 1208.649 473.430 L 1204.797 471.222 1208.325 470.058 C 1213.199 468.449, 1230.951 456.525, 1240 448.781 C 1250.370 439.907, 1260.801 432.062, 1264.714 430.197 C 1268.157 428.555, 1269.266 426.507, 1266.250 427.360 C 1260.837 428.891, 1250.434 429.156, 1221.725 428.494 L 1189.768 427.756 1198.696 424.073 C 1226.733 412.507, 1252.075 392.687, 1272.844 366.082 C 1279.800 357.171, 1279.845 356.871, 1273.890 359.134 C 1268.166 361.309, 1255.229 364.414, 1247 365.588 C 1239.076 366.719, 1171.757 366.716, 1173.826 365.586 C 1178.855 362.838, 1188.673 354.390, 1197.500 345.216 C 1210.183 332.033, 1217.005 326.601, 1229.500 319.737 C 1239.414 314.290, 1262.116 301.018, 1265 298.983 C 1266.068 298.229, 1261.601 298.080, 1249.491 298.465 C 1211.289 299.678, 1179.808 304.292, 1140.579 314.425 C 1131.185 316.852, 1122.713 319.147, 1121.750 319.526 C 1118.274 320.893, 1120.115 317.949, 1127.250 310.732 C 1141.902 295.911, 1153.361 289.955, 1192.225 276.962 C 1221.762 267.087, 1244.341 253.565, 1254.043 239.940 C 1256.175 236.946, 1256.213 236.712, 1254.449 237.460 C 1235.290 245.583, 1218.961 247.288, 1178 245.442 C 1158.671 244.571, 1145.827 244.455, 1138.086 245.082 C 1131.809 245.590, 1126.498 245.832, 1126.285 245.619 C 1125.660 244.994, 1140.623 231.880, 1147.332 227.173 C 1150.724 224.792, 1160.025 218.970, 1168 214.234 C 1193.580 199.042, 1200.350 194.803, 1207.698 189.377 C 1215.561 183.571, 1229 171.276, 1229 169.888 C 1229 169.410, 1226.188 170.622, 1222.750 172.580 C 1199.921 185.588, 1181.392 191.650, 1134.419 201.478 C 1105.389 207.552, 1087.346 212.208, 1072.290 217.508 L 1059.500 222.010 1064 218.016 C 1077.140 206.352, 1090.914 196.290, 1127.299 171.776 C 1133.238 167.774, 1138.863 163.784, 1139.799 162.909 C 1140.735 162.034, 1144.055 159.457, 1147.177 157.181 C 1152.768 153.108, 1154.898 150.971, 1153.309 151.030 C 1152.864 151.047, 1151.689 151.533, 1150.698 152.109 M 527.999 393.750 C 522.583 405.866, 513.042 433.341, 512.884 437.276 C 512.835 438.499, 514.219 442.875, 515.959 447 C 521.733 460.685, 526.980 477.510, 528.142 486.060 C 528.990 492.298, 529.955 495.413, 531.844 498 C 538.088 506.554, 563.847 530.390, 606.950 567.500 C 655.676 609.451, 669.414 622.054, 667.885 623.402 C 667.176 624.028, 604.763 616.156, 598.087 614.599 C 567.328 607.426, 545.400 605.200, 541.723 608.877 C 540.843 609.757, 541.151 612.871, 542.998 621.769 C 544.337 628.221, 545.452 636.425, 545.475 640 C 545.522 647.253, 545.769 647.811, 554.297 659.905 C 569.127 680.936, 591.981 705.375, 611 720.542 C 664.230 762.990, 730.550 788.244, 798 791.749 C 804.875 792.107, 809.600 792.566, 808.500 792.771 C 804.685 793.480, 788.270 813.076, 778.570 828.500 C 740.913 888.383, 736.656 963.596, 767.411 1025.692 C 796.200 1083.818, 846.903 1122.767, 912 1136.762 C 923.624 1139.261, 926.217 1139.451, 949 1139.468 C 975.365 1139.487, 982.001 1138.786, 1011.500 1132.864 C 1107.806 1113.528, 1232.624 1061.102, 1307.886 1008.375 C 1312.498 1005.144, 1318.123 1001.197, 1320.386 999.605 C 1335.587 988.909, 1358.416 968.192, 1368.911 955.570 C 1376.217 946.784, 1378.378 943.727, 1375.942 945.622 C 1364.420 954.584, 1304.802 995.922, 1285.732 1008.172 C 1254.500 1028.234, 1222.420 1045.807, 1196 1057.327 C 1189.125 1060.324, 1176.075 1066.377, 1167 1070.777 C 1112.848 1097.035, 1064.367 1109.232, 1014 1109.268 C 976.673 1109.295, 945.541 1102.614, 916.500 1088.346 C 910.824 1085.557, 900.229 1078.489, 887.816 1069.212 C 870.569 1056.321, 866.563 1052.767, 855.455 1040.500 C 832.773 1015.450, 825.708 1004.971, 816.694 983 C 811.493 970.323, 809.647 960.637, 810.241 949.127 C 811.149 931.518, 817.899 917.950, 833.442 902.491 C 845.581 890.418, 851.100 886.910, 881.216 872.125 C 895.360 865.181, 906.948 859.253, 906.966 858.951 C 906.985 858.649, 905.313 857.802, 903.250 857.068 C 901.188 856.335, 893.601 852.902, 886.390 849.441 C 871.303 842.198, 863.703 836.372, 854.913 825.310 C 843.374 810.789, 842.576 806.710, 849.542 797.843 L 854.085 792.061 840.792 792.469 L 827.500 792.877 841 791.943 C 893.737 788.296, 945.242 772.666, 988.500 747.183 C 1009.446 734.844, 1019.394 726.798, 1023.580 718.810 C 1027.518 711.294, 1014.671 674.763, 1000.386 652.857 C 994.344 643.592, 983.163 632.311, 976 628.255 C 962.562 620.644, 944.255 614.996, 924.500 612.367 C 908.742 610.270, 880.308 611.015, 846.500 614.411 C 782.895 620.801, 763.627 620.240, 727.500 610.950 C 706.743 605.612, 701.658 603.885, 689.028 597.886 C 658.213 583.247, 632.201 558.241, 602.581 514.784 C 582.962 485.998, 564.034 449.362, 556.046 424.710 C 555.371 422.625, 550.359 412.532, 544.909 402.280 C 539.459 392.027, 535 383.270, 535 382.820 C 535 382.369, 534.607 382, 534.126 382 C 533.645 382, 530.888 387.288, 527.999 393.750 M 717.500 408.942 C 678.230 415.316, 646.814 443.447, 638.026 480.107 C 635.561 490.390, 635.288 509.483, 637.458 519.800 C 641.566 539.328, 651.219 556.367, 666.253 570.624 C 675.099 579.013, 682.246 583.827, 694.302 589.517 C 709.849 596.854, 717.607 598.439, 738 598.443 C 756.143 598.447, 760.708 597.745, 773.771 592.948 C 802.969 582.225, 825.039 558.277, 833.162 528.500 C 836.371 516.737, 836.351 496.002, 833.119 483.500 C 823.898 447.839, 796.210 420.898, 758.500 410.896 C 749.680 408.557, 726.639 407.459, 717.500 408.942 M 722.280 425.074 C 689.969 430.053, 663.590 453.524, 655.444 484.540 C 653.282 492.775, 652.951 510.679, 654.810 518.864 C 661.610 548.808, 685.165 572.312, 716.664 580.585 C 726.105 583.065, 746.828 583.066, 756.500 580.587 C 765.890 578.180, 780.111 571.356, 787.659 565.636 C 800.346 556.020, 811.462 539.524, 815.718 524 C 817.047 519.152, 817.489 513.941, 817.456 503.500 C 817.415 490.479, 817.193 488.865, 814.284 480.427 C 809.605 466.852, 805.287 459.958, 794.707 449.171 C 779.851 434.025, 760.631 425.617, 738.500 424.583 C 733 424.326, 725.701 424.547, 722.280 425.074 M 753.589 529.077 C 750.161 533.151, 750.295 536.448, 754.040 540.194 C 756.581 542.735, 757.600 543.130, 760.242 542.602 C 764.982 541.654, 768 538.326, 768 534.048 C 768 528.455, 765.722 526, 760.532 526 C 756.897 526, 755.750 526.509, 753.589 529.077 M 1012.575 732.878 C 1012.277 733.361, 1013.431 734.036, 1015.141 734.378 C 1020.249 735.400, 1021.742 734.941, 1018 733.500 C 1013.669 731.832, 1013.251 731.784, 1012.575 732.878 M 1006.885 736.822 C 1005.573 737.824, 1001.652 740.353, 998.171 742.442 C 994.689 744.532, 992.214 746.566, 992.671 746.964 C 993.127 747.361, 997.325 748.243, 1002 748.924 C 1044.094 755.051, 1108.583 771.882, 1197.500 799.948 C 1247.676 815.785, 1284.357 826.656, 1316 835.065 C 1323.975 837.185, 1332.360 839.466, 1334.633 840.135 C 1337.904 841.097, 1341.188 841.081, 1350.383 840.056 C 1356.772 839.344, 1362 838.449, 1362 838.069 C 1362 836.644, 1346.949 826.364, 1334.319 819.164 C 1273.408 784.434, 1158.730 753.863, 1026 736.973 C 1007.416 734.608, 1009.759 734.626, 1006.885 736.822 M 1045.550 737.852 C 1046.072 738.320, 1050.550 739.268, 1055.500 739.958 C 1060.450 740.648, 1072.553 742.524, 1082.396 744.127 C 1092.239 745.729, 1100.459 746.875, 1100.662 746.671 C 1100.865 746.468, 1094.387 744.665, 1086.266 742.664 C 1069.642 738.569, 1042.813 735.398, 1045.550 737.852 M 1102.813 747.683 C 1103.534 747.972, 1104.397 747.936, 1104.729 747.604 C 1105.061 747.272, 1104.471 747.036, 1103.417 747.079 C 1102.252 747.127, 1102.015 747.364, 1102.813 747.683 M 813 793 C 813 793.550, 813.675 794, 814.500 794 C 815.325 794, 816 793.550, 816 793 C 816 792.450, 815.325 792, 814.500 792 C 813.675 792, 813 792.450, 813 793 M 824 793 C 824 793.550, 824.450 794, 825 794 C 825.550 794, 826 793.550, 826 793 C 826 792.450, 825.550 792, 825 792 C 824.450 792, 824 792.450, 824 793 M 818.269 793.693 C 819.242 793.947, 820.592 793.930, 821.269 793.656 C 821.946 793.382, 821.150 793.175, 819.500 793.195 C 817.850 793.215, 817.296 793.439, 818.269 793.693 M 862.410 1255 C 865.109 1258.025, 867.973 1261.175, 868.775 1262 C 871.573 1264.878, 868.300 1259.739, 865.273 1256.500 C 859.931 1250.786, 857.524 1249.524, 862.410 1255" stroke="none" fill="black" fill-rule="evenodd"/>
</svg>